HIERARCHY
ROOT pelvis
{
  OFFSET 0 100 0
  CHANNELS 6 Xposition Yposition Zposition Zrotation Xrotation Yrotation
  JOINT pelvis_right_femur
  {
    OFFSET -10.78128 -3.44521 -0.5502486
    CHANNELS 3 Zrotation Xrotation Yrotation
    JOINT right_femur_tibia
    {
      OFFSET -0.8047443 -44.0398 -0.1307829
      CHANNELS 3 Zrotation Xrotation Yrotation
      JOINT right_tibia_foot
      {
        OFFSET 3.006224 -47.83518 -5
        CHANNELS 3 Zrotation Xrotation Yrotation
        End Site
        {
          OFFSET 0 -5 15
        }
      }
    }
  }
  JOINT pelvis_left_femur
  {
    OFFSET 10.78128 -3.44521 -0.5502486
    CHANNELS 3 Zrotation Xrotation Yrotation
    JOINT left_femur_tibia
    {
      OFFSET 0.8047443 -44.0398 -0.1307829
      CHANNELS 3 Zrotation Xrotation Yrotation
      JOINT left_tibia_foot
      {
        OFFSET -4.370144 -48.10324 -4.275266
        CHANNELS 3 Zrotation Xrotation Yrotation
        End Site
        {
          OFFSET 0 -5 15
        }
      }
    }
  }
  JOINT pelvis_spine1
  {
    OFFSET 0 6.468898 -3.129235
    CHANNELS 3 Zrotation Xrotation Yrotation
    JOINT spine1
    {
      OFFSET 0 23.15396 4.99043
      CHANNELS 3 Zrotation Xrotation Yrotation
      JOINT spine2
      {
        OFFSET 0 20.79997 -5.064912
        CHANNELS 3 Zrotation Xrotation Yrotation
        JOINT neck
        {
          OFFSET 0 14.38658 9.616178
          CHANNELS 3 Zrotation Xrotation Yrotation
          End Site
          {
            OFFSET 0 20 0
          }
        }
      }
      JOINT right_manubrium
      {
        OFFSET -5.722621 16.35077 3.967754
        CHANNELS 3 Zrotation Xrotation Yrotation
        JOINT right_clavicle
        {
          OFFSET -13.16364 1.694482 -4.693211
          CHANNELS 3 Zrotation Xrotation Yrotation
          JOINT right_humerus
          {
            OFFSET -28.5034 -0.3100689 -2.792744
            CHANNELS 3 Zrotation Xrotation Yrotation
            JOINT right_radius
            {
              OFFSET -25.15693 0.02248979 -1.271978
              CHANNELS 3 Zrotation Xrotation Yrotation
              End Site
              {
                OFFSET -15 0 0
              }
            }
          }
        }
      }
      JOINT left_manubrium
      {
        OFFSET 5.722621 16.35077 3.967754
        CHANNELS 3 Zrotation Xrotation Yrotation
        JOINT left_clavicle
        {
          OFFSET 13.16364 1.694482 -4.693211
          CHANNELS 3 Zrotation Xrotation Yrotation
          JOINT left_humerus
          {
            OFFSET 29.39168 -1.063119 -2.237045
            CHANNELS 3 Zrotation Xrotation Yrotation
            JOINT left_radius
            {
              OFFSET 24.59957 -0.9528479 0.9047498
              CHANNELS 3 Zrotation Xrotation Yrotation
              End Site
              {
                OFFSET 15 -0 -0
              }
            }
          }
        }
      }
    }
  }
}
MOTION
Frames: 7
Frame Time: 0.0416666666667
-2009.493 96.1082 1484.911 -8.222518 8.059035 -136.5692 4.263628 5.955023 -7.168892 -0 17.82284 -0 -16.66032 7.216166 3.279593 -0.5159611 -8.98102 -2.627608 -0 23.91394 -0 7.534155 -3.938044 16.648 0.1933139 -3.16709 5.190658 -1.687537 16.84972 -4.172294 1.385617 22.87283 3.776403 3.087324 -16.98826 4.071659 -4.498105 -25.15541 11.77679 93.61046 12.15181 -12.36108 -0 0 14.5485 -29.70076 9.617477 15.7234 5.673309 -26.90342 -10.20369 -89.57376 3.944452 21.84094 0 0 -11.08501 20.05805 14.23434 -11.33857
-2014.693 96.12287 1480.34 -8.176627 8.105613 -136.8958 4.263558 5.955348 -7.168831 -0 17.82335 -0 -16.66021 7.216117 3.279596 -0.5159779 -8.98127 -2.627675 -0 23.9134 -0 7.534168 -3.938073 16.64811 0.1932675 -3.167082 5.190683 -1.687569 16.84968 -4.172243 1.38562 22.87284 3.776418 3.087321 -16.98825 4.071683 -4.498076 -25.15546 11.77678 93.61035 12.15186 -12.3609 -0 0 14.54867 -29.7008 9.617451 15.72346 5.673297 -26.9033 -10.20365 -89.57383 3.944536 21.84109 0 0 -11.08479 20.05792 14.23435 -11.33843
-2019.866 96.13755 1475.739 -8.130479 8.151943 -137.2224 4.26348 5.955555 -7.1688 -0 17.82391 -0 -16.66014 7.216175 3.279602 -0.5160203 -8.981378 -2.627742 -0 23.91296 -0 7.534193 -3.938115 16.6482 0.1932232 -3.167077 5.190687 -1.687601 16.84966 -4.172204 1.385624 22.87285 3.776433 3.08732 -16.98823 4.071704 -4.498058 -25.15548 11.77677 93.61029 12.15188 -12.36078 -0 0 14.54877 -29.70085 9.617422 15.72352 5.673287 -26.90321 -10.20363 -89.57387 3.94458 21.84116 0 0 -11.08461 20.05785 14.23436 -11.33835
-2025.014 96.15223 1471.109 -8.084074 8.198023 -137.5491 4.263399 5.955637 -7.168798 -0 17.82448 -0 -16.66011 7.216331 3.27961 -0.5160845 -8.981344 -2.627804 -0 23.91263 -0 7.534228 -3.938165 16.64825 0.1931836 -3.167077 5.19067 -1.687631 16.84965 -4.172178 1.385628 22.87287 3.776447 3.087323 -16.9882 4.071722 -4.498051 -25.15547 11.77675 93.61029 12.15186 -12.36071 -0 0 14.5488 -29.70092 9.617391 15.72356 5.673282 -26.90316 -10.20364 -89.57386 3.944584 21.84116 0 0 -11.08449 20.05784 14.23436 -11.33834
-2030.135 96.16694 1466.45 -8.037409 8.243851 -137.8759 4.263319 5.955595 -7.168824 -0 17.82503 -0 -16.6601 7.216571 3.279619 -0.5161657 -8.981176 -2.627857 -0 23.91243 -0 7.53427 -3.93822 16.64827 0.193151 -3.16708 5.190634 -1.687657 16.84966 -4.172166 1.385634 22.87289 3.77646 3.087328 -16.98817 4.071737 -4.498056 -25.15544 11.77674 93.61034 12.15181 -12.36071 -0 0 14.54874 -29.70098 9.61736 15.72358 5.673281 -26.90315 -10.20366 -89.57383 3.944549 21.84109 0 0 -11.08442 20.05788 14.23435 -11.33839
-2035.229 96.18168 1461.762 -7.990481 8.289422 -138.2027 4.263246 5.955436 -7.168876 -0 17.82552 -0 -16.66014 7.216878 3.27963 -0.5162581 -8.980891 -2.6279 -0 23.91237 -0 7.534317 -3.938278 16.64825 0.1931269 -3.167087 5.190582 -1.687679 16.84968 -4.172168 1.385639 22.87292 3.776471 3.087336 -16.98813 4.071747 -4.498071 -25.15538 11.77674 93.61044 12.15173 -12.36076 -0 0 14.54862 -29.70106 9.617332 15.72359 5.673284 -26.90317 -10.20371 -89.57376 3.944478 21.84096 0 0 -11.08441 20.05796 14.23434 -11.3385
-2040.296 96.19644 1457.045 -7.943288 8.334733 -138.5295 4.263185 5.955175 -7.168948 -0 17.82592 -0 -16.6602 7.217229 3.279641 -0.5163556 -8.98051 -2.62793 -0 23.91244 -0 7.534365 -3.938333 16.64821 0.1931126 -3.167097 5.190518 -1.687694 16.84972 -4.172184 1.385644 22.87294 3.776479 3.087345 -16.9881 4.071751 -4.498095 -25.15531 11.77673 93.61058 12.15162 -12.36086 -0 0 14.54843 -29.70112 9.617307 15.72359 5.673291 -26.90324 -10.20377 -89.57367 3.944378 21.84077 0 0 -11.08445 20.0581 14.23433 -11.33867
